<?xml version="1.0" encoding="UTF-8"?>
<!-- Original Skull King mark for this PWA (CC BY-SA 4.0, SiloCityLabs). -->
<svg xmlns="http://www.w3.org/2000/svg" viewBox="0 0 512 512" role="img" aria-label="Skull King">
  <defs>
    <linearGradient id="bg" x1="0" y1="0" x2="1" y2="1">
      <stop offset="0%" stop-color="#2a1f18"/>
      <stop offset="100%" stop-color="#120c09"/>
    </linearGradient>
    <linearGradient id="gold" x1="0" y1="0" x2="0" y2="1">
      <stop offset="0%" stop-color="#f0d080"/>
      <stop offset="100%" stop-color="#b8860b"/>
    </linearGradient>
  </defs>
  <rect width="512" height="512" rx="96" fill="url(#bg)"/>
  <circle cx="256" cy="268" r="168" fill="none" stroke="url(#gold)" stroke-width="10" opacity="0.35"/>
  <!-- crown -->
  <path fill="url(#gold)" d="M128 168 168 112l88 56 88-56 40 56-24 40H152z"/>
  <circle cx="168" cy="112" r="14" fill="#f8e8b0"/>
  <circle cx="256" cy="96" r="16" fill="#f8e8b0"/>
  <circle cx="344" cy="112" r="14" fill="#f8e8b0"/>
  <!-- skull -->
  <ellipse cx="256" cy="272" rx="118" ry="132" fill="#e8dcc8"/>
  <ellipse cx="256" cy="300" rx="88" ry="72" fill="#1a1410"/>
  <!-- eyes -->
  <ellipse cx="206" cy="248" rx="28" ry="34" fill="#1a1410"/>
  <ellipse cx="306" cy="248" rx="28" ry="34" fill="#1a1410"/>
  <ellipse cx="214" cy="236" rx="8" ry="10" fill="#f0d080" opacity="0.55"/>
  <ellipse cx="314" cy="236" rx="8" ry="10" fill="#f0d080" opacity="0.55"/>
  <!-- nose -->
  <path fill="#1a1410" d="M256 278 236 318h40z"/>
  <!-- teeth -->
  <rect x="214" y="332" width="18" height="26" rx="3" fill="#e8dcc8"/>
  <rect x="238" y="332" width="18" height="26" rx="3" fill="#e8dcc8"/>
  <rect x="262" y="332" width="18" height="26" rx="3" fill="#e8dcc8"/>
  <rect x="286" y="332" width="18" height="26" rx="3" fill="#e8dcc8"/>
  <!-- crossbones -->
  <g stroke="#e8dcc8" stroke-width="22" stroke-linecap="round">
    <line x1="96" y1="392" x2="176" y2="448"/>
    <line x1="176" y1="392" x2="96" y2="448"/>
    <line x1="336" y1="392" x2="416" y2="448"/>
    <line x1="416" y1="392" x2="336" y2="448"/>
  </g>
</svg>
